<svg id="visual" viewBox="0 0 960 540" width="960" height="540" xmlns="http://www.w3.org/2000/svg" xmlns:xlink="http://www.w3.org/1999/xlink" version="1.1"><path d="M0 510L69 510L69 477L137 477L137 487L206 487L206 501L274 501L274 516L343 516L343 485L411 485L411 499L480 499L480 495L549 495L549 479L617 479L617 508L686 508L686 475L754 475L754 501L823 501L823 482L891 482L891 514L960 514L960 486L960 0L960 0L891 0L891 0L823 0L823 0L754 0L754 0L686 0L686 0L617 0L617 0L549 0L549 0L480 0L480 0L411 0L411 0L343 0L343 0L274 0L274 0L206 0L206 0L137 0L137 0L69 0L69 0L0 0Z" fill="#fffbff"></path><path d="M0 478L69 478L69 454L137 454L137 461L206 461L206 439L274 439L274 459L343 459L343 450L411 450L411 458L480 458L480 445L549 445L549 472L617 472L617 431L686 431L686 439L754 439L754 437L823 437L823 458L891 458L891 440L960 440L960 439L960 0L960 0L891 0L891 0L823 0L823 0L754 0L754 0L686 0L686 0L617 0L617 0L549 0L549 0L480 0L480 0L411 0L411 0L343 0L343 0L274 0L274 0L206 0L206 0L137 0L137 0L69 0L69 0L0 0Z" fill="#fceaf9"></path><path d="M0 433L69 433L69 392L137 392L137 398L206 398L206 431L274 431L274 410L343 410L343 436L411 436L411 439L480 439L480 433L549 433L549 419L617 419L617 413L686 413L686 402L754 402L754 439L823 439L823 394L891 394L891 395L960 395L960 436L960 0L960 0L891 0L891 0L823 0L823 0L754 0L754 0L686 0L686 0L617 0L617 0L549 0L549 0L480 0L480 0L411 0L411 0L343 0L343 0L274 0L274 0L206 0L206 0L137 0L137 0L69 0L69 0L0 0Z" fill="#fbd9f0"></path><path d="M0 355L69 355L69 398L137 398L137 377L206 377L206 372L274 372L274 361L343 361L343 363L411 363L411 379L480 379L480 364L549 364L549 383L617 383L617 385L686 385L686 349L754 349L754 357L823 357L823 360L891 360L891 390L960 390L960 381L960 0L960 0L891 0L891 0L823 0L823 0L754 0L754 0L686 0L686 0L617 0L617 0L549 0L549 0L480 0L480 0L411 0L411 0L343 0L343 0L274 0L274 0L206 0L206 0L137 0L137 0L69 0L69 0L0 0Z" fill="#fcc7e5"></path><path d="M0 315L69 315L69 347L137 347L137 319L206 319L206 319L274 319L274 308L343 308L343 307L411 307L411 313L480 313L480 332L549 332L549 344L617 344L617 324L686 324L686 321L754 321L754 346L823 346L823 314L891 314L891 310L960 310L960 355L960 0L960 0L891 0L891 0L823 0L823 0L754 0L754 0L686 0L686 0L617 0L617 0L549 0L549 0L480 0L480 0L411 0L411 0L343 0L343 0L274 0L274 0L206 0L206 0L137 0L137 0L69 0L69 0L0 0Z" fill="#fdb5d7"></path><path d="M0 275L69 275L69 309L137 309L137 309L206 309L206 276L274 276L274 296L343 296L343 280L411 280L411 299L480 299L480 273L549 273L549 294L617 294L617 278L686 278L686 290L754 290L754 268L823 268L823 299L891 299L891 279L960 279L960 298L960 0L960 0L891 0L891 0L823 0L823 0L754 0L754 0L686 0L686 0L617 0L617 0L549 0L549 0L480 0L480 0L411 0L411 0L343 0L343 0L274 0L274 0L206 0L206 0L137 0L137 0L69 0L69 0L0 0Z" fill="#ffa2c7"></path><path d="M0 228L69 228L69 242L137 242L137 244L206 244L206 226L274 226L274 229L343 229L343 273L411 273L411 267L480 267L480 269L549 269L549 258L617 258L617 257L686 257L686 260L754 260L754 233L823 233L823 272L891 272L891 255L960 255L960 239L960 0L960 0L891 0L891 0L823 0L823 0L754 0L754 0L686 0L686 0L617 0L617 0L549 0L549 0L480 0L480 0L411 0L411 0L343 0L343 0L274 0L274 0L206 0L206 0L137 0L137 0L69 0L69 0L0 0Z" fill="#ff8eb4"></path><path d="M0 194L69 194L69 188L137 188L137 229L206 229L206 226L274 226L274 223L343 223L343 214L411 214L411 231L480 231L480 204L549 204L549 230L617 230L617 221L686 221L686 192L754 192L754 209L823 209L823 227L891 227L891 231L960 231L960 220L960 0L960 0L891 0L891 0L823 0L823 0L754 0L754 0L686 0L686 0L617 0L617 0L549 0L549 0L480 0L480 0L411 0L411 0L343 0L343 0L274 0L274 0L206 0L206 0L137 0L137 0L69 0L69 0L0 0Z" fill="#ff7a9f"></path><path d="M0 145L69 145L69 154L137 154L137 172L206 172L206 144L274 144L274 184L343 184L343 142L411 142L411 160L480 160L480 167L549 167L549 184L617 184L617 166L686 166L686 145L754 145L754 145L823 145L823 152L891 152L891 151L960 151L960 181L960 0L960 0L891 0L891 0L823 0L823 0L754 0L754 0L686 0L686 0L617 0L617 0L549 0L549 0L480 0L480 0L411 0L411 0L343 0L343 0L274 0L274 0L206 0L206 0L137 0L137 0L69 0L69 0L0 0Z" fill="#fd6488"></path><path d="M0 126L69 126L69 105L137 105L137 139L206 139L206 120L274 120L274 132L343 132L343 103L411 103L411 121L480 121L480 108L549 108L549 111L617 111L617 118L686 118L686 135L754 135L754 137L823 137L823 118L891 118L891 117L960 117L960 116L960 0L960 0L891 0L891 0L823 0L823 0L754 0L754 0L686 0L686 0L617 0L617 0L549 0L549 0L480 0L480 0L411 0L411 0L343 0L343 0L274 0L274 0L206 0L206 0L137 0L137 0L69 0L69 0L0 0Z" fill="#fa4e70"></path><path d="M0 98L69 98L69 69L137 69L137 93L206 93L206 98L274 98L274 78L343 78L343 59L411 59L411 60L480 60L480 91L549 91L549 101L617 101L617 61L686 61L686 89L754 89L754 100L823 100L823 96L891 96L891 86L960 86L960 97L960 0L960 0L891 0L891 0L823 0L823 0L754 0L754 0L686 0L686 0L617 0L617 0L549 0L549 0L480 0L480 0L411 0L411 0L343 0L343 0L274 0L274 0L206 0L206 0L137 0L137 0L69 0L69 0L0 0Z" fill="#f33455"></path><path d="M0 53L69 53L69 42L137 42L137 63L206 63L206 52L274 52L274 34L343 34L343 42L411 42L411 52L480 52L480 53L549 53L549 57L617 57L617 54L686 54L686 29L754 29L754 61L823 61L823 16L891 16L891 39L960 39L960 60L960 0L960 0L891 0L891 0L823 0L823 0L754 0L754 0L686 0L686 0L617 0L617 0L549 0L549 0L480 0L480 0L411 0L411 0L343 0L343 0L274 0L274 0L206 0L206 0L137 0L137 0L69 0L69 0L0 0Z" fill="#eb0e3a"></path></svg>