<svg id="visual" viewBox="0 0 1080 240" width="1080" height="240" xmlns="http://www.w3.org/2000/svg" xmlns:xlink="http://www.w3.org/1999/xlink" version="1.1"><path d="M0 205L47 205L47 208L94 208L94 221L141 221L141 216L188 216L188 214L235 214L235 222L282 222L282 216L329 216L329 224L376 224L376 222L423 222L423 225L470 225L470 215L517 215L517 225L563 225L563 227L610 227L610 225L657 225L657 221L704 221L704 222L751 222L751 209L798 209L798 204L845 204L845 226L892 226L892 209L939 209L939 223L986 223L986 215L1033 215L1033 200L1080 200L1080 216L1080 0L1080 0L1033 0L1033 0L986 0L986 0L939 0L939 0L892 0L892 0L845 0L845 0L798 0L798 0L751 0L751 0L704 0L704 0L657 0L657 0L610 0L610 0L563 0L563 0L517 0L517 0L470 0L470 0L423 0L423 0L376 0L376 0L329 0L329 0L282 0L282 0L235 0L235 0L188 0L188 0L141 0L141 0L94 0L94 0L47 0L47 0L0 0Z" fill="#fffbff"></path><path d="M0 197L47 197L47 172L94 172L94 184L141 184L141 188L188 188L188 185L235 185L235 179L282 179L282 179L329 179L329 179L376 179L376 176L423 176L423 191L470 191L470 199L517 199L517 201L563 201L563 184L610 184L610 185L657 185L657 191L704 191L704 191L751 191L751 198L798 198L798 195L845 195L845 180L892 180L892 196L939 196L939 188L986 188L986 172L1033 172L1033 187L1080 187L1080 193L1080 0L1080 0L1033 0L1033 0L986 0L986 0L939 0L939 0L892 0L892 0L845 0L845 0L798 0L798 0L751 0L751 0L704 0L704 0L657 0L657 0L610 0L610 0L563 0L563 0L517 0L517 0L470 0L470 0L423 0L423 0L376 0L376 0L329 0L329 0L282 0L282 0L235 0L235 0L188 0L188 0L141 0L141 0L94 0L94 0L47 0L47 0L0 0Z" fill="#fce0f4"></path><path d="M0 166L47 166L47 152L94 152L94 156L141 156L141 163L188 163L188 171L235 171L235 154L282 154L282 152L329 152L329 166L376 166L376 173L423 173L423 166L470 166L470 153L517 153L517 164L563 164L563 173L610 173L610 175L657 175L657 162L704 162L704 172L751 172L751 168L798 168L798 163L845 163L845 172L892 172L892 156L939 156L939 158L986 158L986 151L1033 151L1033 167L1080 167L1080 173L1080 0L1080 0L1033 0L1033 0L986 0L986 0L939 0L939 0L892 0L892 0L845 0L845 0L798 0L798 0L751 0L751 0L704 0L704 0L657 0L657 0L610 0L610 0L563 0L563 0L517 0L517 0L470 0L470 0L423 0L423 0L376 0L376 0L329 0L329 0L282 0L282 0L235 0L235 0L188 0L188 0L141 0L141 0L94 0L94 0L47 0L47 0L0 0Z" fill="#fcc4e3"></path><path d="M0 138L47 138L47 146L94 146L94 141L141 141L141 144L188 144L188 146L235 146L235 123L282 123L282 118L329 118L329 134L376 134L376 136L423 136L423 136L470 136L470 145L517 145L517 127L563 127L563 124L610 124L610 133L657 133L657 130L704 130L704 146L751 146L751 138L798 138L798 134L845 134L845 142L892 142L892 128L939 128L939 143L986 143L986 148L1033 148L1033 133L1080 133L1080 148L1080 0L1080 0L1033 0L1033 0L986 0L986 0L939 0L939 0L892 0L892 0L845 0L845 0L798 0L798 0L751 0L751 0L704 0L704 0L657 0L657 0L610 0L610 0L563 0L563 0L517 0L517 0L470 0L470 0L423 0L423 0L376 0L376 0L329 0L329 0L282 0L282 0L235 0L235 0L188 0L188 0L141 0L141 0L94 0L94 0L47 0L47 0L0 0Z" fill="#fea7cc"></path><path d="M0 119L47 119L47 112L94 112L94 112L141 112L141 121L188 121L188 91L235 91L235 97L282 97L282 101L329 101L329 112L376 112L376 101L423 101L423 116L470 116L470 99L517 99L517 99L563 99L563 98L610 98L610 98L657 98L657 116L704 116L704 98L751 98L751 116L798 116L798 108L845 108L845 108L892 108L892 109L939 109L939 122L986 122L986 118L1033 118L1033 115L1080 115L1080 119L1080 0L1080 0L1033 0L1033 0L986 0L986 0L939 0L939 0L892 0L892 0L845 0L845 0L798 0L798 0L751 0L751 0L704 0L704 0L657 0L657 0L610 0L610 0L563 0L563 0L517 0L517 0L470 0L470 0L423 0L423 0L376 0L376 0L329 0L329 0L282 0L282 0L235 0L235 0L188 0L188 0L141 0L141 0L94 0L94 0L47 0L47 0L0 0Z" fill="#ff88af"></path><path d="M0 74L47 74L47 88L94 88L94 65L141 65L141 78L188 78L188 67L235 67L235 79L282 79L282 76L329 76L329 64L376 64L376 87L423 87L423 89L470 89L470 66L517 66L517 82L563 82L563 81L610 81L610 71L657 71L657 68L704 68L704 83L751 83L751 68L798 68L798 90L845 90L845 70L892 70L892 72L939 72L939 94L986 94L986 81L1033 81L1033 72L1080 72L1080 86L1080 0L1080 0L1033 0L1033 0L986 0L986 0L939 0L939 0L892 0L892 0L845 0L845 0L798 0L798 0L751 0L751 0L704 0L704 0L657 0L657 0L610 0L610 0L563 0L563 0L517 0L517 0L470 0L470 0L423 0L423 0L376 0L376 0L329 0L329 0L282 0L282 0L235 0L235 0L188 0L188 0L141 0L141 0L94 0L94 0L47 0L47 0L0 0Z" fill="#fe688c"></path><path d="M0 43L47 43L47 55L94 55L94 59L141 59L141 64L188 64L188 39L235 39L235 44L282 44L282 65L329 65L329 59L376 59L376 63L423 63L423 37L470 37L470 53L517 53L517 67L563 67L563 38L610 38L610 43L657 43L657 47L704 47L704 42L751 42L751 56L798 56L798 64L845 64L845 64L892 64L892 39L939 39L939 50L986 50L986 55L1033 55L1033 63L1080 63L1080 47L1080 0L1080 0L1033 0L1033 0L986 0L986 0L939 0L939 0L892 0L892 0L845 0L845 0L798 0L798 0L751 0L751 0L704 0L704 0L657 0L657 0L610 0L610 0L563 0L563 0L517 0L517 0L470 0L470 0L423 0L423 0L376 0L376 0L329 0L329 0L282 0L282 0L235 0L235 0L188 0L188 0L141 0L141 0L94 0L94 0L47 0L47 0L0 0Z" fill="#f74365"></path><path d="M0 35L47 35L47 35L94 35L94 20L141 20L141 11L188 11L188 40L235 40L235 23L282 23L282 22L329 22L329 33L376 33L376 27L423 27L423 34L470 34L470 38L517 38L517 16L563 16L563 25L610 25L610 14L657 14L657 42L704 42L704 17L751 17L751 29L798 29L798 17L845 17L845 39L892 39L892 29L939 29L939 30L986 30L986 29L1033 29L1033 31L1080 31L1080 36L1080 0L1080 0L1033 0L1033 0L986 0L986 0L939 0L939 0L892 0L892 0L845 0L845 0L798 0L798 0L751 0L751 0L704 0L704 0L657 0L657 0L610 0L610 0L563 0L563 0L517 0L517 0L470 0L470 0L423 0L423 0L376 0L376 0L329 0L329 0L282 0L282 0L235 0L235 0L188 0L188 0L141 0L141 0L94 0L94 0L47 0L47 0L0 0Z" fill="#eb0e3a"></path></svg>